<svg xmlns="http://www.w3.org/2000/svg" viewBox="0 0 402 874" width="402" height="874"><circle cx="130.2" cy="131.8" r="0.61" fill="#FFFFFF" fill-opacity="0.37"/><circle cx="330.2" cy="82.3" r="0.54" fill="#DDE9FF" fill-opacity="0.32"/><circle cx="15.1" cy="379" r="0.35" fill="#FFFFFF" fill-opacity="0.18"/><circle cx="221.5" cy="51.7" r="0.52" fill="#DDE9FF" fill-opacity="0.31"/><circle cx="253.5" cy="509.5" r="0.35" fill="#E6F7FF" fill-opacity="0.18"/><circle cx="19.9" cy="193.2" r="0.51" fill="#DDE9FF" fill-opacity="0.30"/><circle cx="116.4" cy="126.1" r="0.35" fill="#FFF1E0" fill-opacity="0.18"/><circle cx="225.2" cy="596.1" r="0.35" fill="#DDE9FF" fill-opacity="0.18"/><circle cx="149.7" cy="478.7" r="0.35" fill="#FFFFFF" fill-opacity="0.18"/><circle cx="248.8" cy="433.9" r="0.49" fill="#FFF1E0" fill-opacity="0.29"/><circle cx="187.2" cy="807.1" r="0.39" fill="#DDE9FF" fill-opacity="0.21"/><circle cx="319.3" cy="610.9" r="0.36" fill="#FFF1E0" fill-opacity="0.19"/><circle cx="211.1" cy="764.9" r="0.72" fill="#FFF1E0" fill-opacity="0.45"/><circle cx="244.8" cy="64" r="0.48" fill="#DDE9FF" fill-opacity="0.27"/><circle cx="304.4" cy="132.8" r="0.46" fill="#FFFFFF" fill-opacity="0.26"/><circle cx="386.7" cy="67.8" r="0.52" fill="#FFF1E0" fill-opacity="0.30"/><circle cx="136.7" cy="306.1" r="0.47" fill="#E6F7FF" fill-opacity="0.27"/><circle cx="27.6" cy="81.8" r="0.37" fill="#FFFFFF" fill-opacity="0.19"/><circle cx="24.4" cy="613.1" r="0.61" fill="#E6F7FF" fill-opacity="0.37"/><circle cx="114.4" cy="337.2" r="0.63" fill="#FFFFFF" fill-opacity="0.39"/><circle cx="378.1" cy="310.7" r="0.57" fill="#E6F7FF" fill-opacity="0.34"/><circle cx="23.7" cy="671.4" r="0.35" fill="#DDE9FF" fill-opacity="0.18"/><circle cx="160" cy="801.3" r="0.47" fill="#DDE9FF" fill-opacity="0.27"/><circle cx="180.6" cy="480.2" r="1.00" fill="#E6F7FF" fill-opacity="0.66"/><circle cx="347.3" cy="243.3" r="0.42" fill="#FFF1E0" fill-opacity="0.23"/><circle cx="274.5" cy="332.5" r="0.36" fill="#FFFFFF" fill-opacity="0.19"/><circle cx="70.8" cy="202.7" r="0.36" fill="#E6F7FF" fill-opacity="0.19"/><circle cx="334.1" cy="159.4" r="0.37" fill="#DDE9FF" fill-opacity="0.20"/><circle cx="168.4" cy="322.7" r="0.52" fill="#DDE9FF" fill-opacity="0.31"/><circle cx="277.6" cy="450.5" r="0.57" fill="#FFFFFF" fill-opacity="0.34"/><circle cx="183.6" cy="761.2" r="1.17" fill="#E6F7FF" fill-opacity="0.78"/><path d="M176.3 761.2H190.9M183.6 753.9V768.5" stroke="#E6F7FF" stroke-opacity="0.27" stroke-width=".5"/><circle cx="160" cy="344.5" r="0.46" fill="#E6F7FF" fill-opacity="0.26"/><circle cx="25" cy="58.9" r="0.36" fill="#DDE9FF" fill-opacity="0.19"/><circle cx="44.2" cy="525" r="0.35" fill="#DDE9FF" fill-opacity="0.18"/><circle cx="215.7" cy="829.4" r="0.57" fill="#FFFFFF" fill-opacity="0.34"/><circle cx="351.5" cy="536.7" r="0.35" fill="#FFF1E0" fill-opacity="0.18"/><circle cx="384.1" cy="526.4" r="0.45" fill="#FFFFFF" fill-opacity="0.25"/><circle cx="341.3" cy="868" r="0.45" fill="#E6F7FF" fill-opacity="0.25"/><circle cx="125.4" cy="126" r="0.75" fill="#FFF1E0" fill-opacity="0.47"/><circle cx="192.4" cy="604.9" r="0.48" fill="#DDE9FF" fill-opacity="0.28"/><circle cx="382.3" cy="461.7" r="0.35" fill="#FFFFFF" fill-opacity="0.18"/><circle cx="304.8" cy="260.5" r="0.60" fill="#FFFFFF" fill-opacity="0.37"/><circle cx="279.9" cy="228.2" r="0.40" fill="#DDE9FF" fill-opacity="0.21"/><circle cx="143" cy="194.7" r="0.50" fill="#FFF1E0" fill-opacity="0.29"/><circle cx="255.8" cy="536" r="0.82" fill="#DDE9FF" fill-opacity="0.52"/><circle cx="324" cy="715.2" r="0.73" fill="#DDE9FF" fill-opacity="0.46"/><circle cx="80.4" cy="430.7" r="0.72" fill="#FFFFFF" fill-opacity="0.45"/><circle cx="317.6" cy="412.7" r="0.36" fill="#FFF1E0" fill-opacity="0.19"/><circle cx="179.8" cy="819" r="1.27" fill="#FFF1E0" fill-opacity="0.86"/><path d="M172 819H187.6M179.8 811.1V826.8" stroke="#FFF1E0" stroke-opacity="0.30" stroke-width=".5"/><circle cx="32.4" cy="89.3" r="0.45" fill="#FFF1E0" fill-opacity="0.25"/><circle cx="82.2" cy="545.4" r="1.04" fill="#FFFFFF" fill-opacity="0.69"/><path d="M75.5 545.4H88.8M82.2 538.8V552.1" stroke="#FFFFFF" stroke-opacity="0.24" stroke-width=".5"/><circle cx="192.7" cy="570.7" r="0.84" fill="#FFFFFF" fill-opacity="0.54"/><circle cx="335.5" cy="104.8" r="0.41" fill="#DDE9FF" fill-opacity="0.22"/><circle cx="192.2" cy="156" r="0.82" fill="#FFF1E0" fill-opacity="0.52"/><circle cx="34.9" cy="826.9" r="0.71" fill="#E6F7FF" fill-opacity="0.44"/><circle cx="161.4" cy="827.5" r="0.71" fill="#DDE9FF" fill-opacity="0.45"/><circle cx="399.2" cy="24.1" r="0.55" fill="#E6F7FF" fill-opacity="0.32"/><circle cx="324.2" cy="127.8" r="0.89" fill="#E6F7FF" fill-opacity="0.58"/><circle cx="264.2" cy="306.3" r="0.51" fill="#DDE9FF" fill-opacity="0.30"/><circle cx="8.6" cy="698.6" r="0.71" fill="#FFFFFF" fill-opacity="0.45"/><circle cx="211.7" cy="816" r="0.43" fill="#DDE9FF" fill-opacity="0.24"/><circle cx="332.1" cy="184.5" r="0.37" fill="#FFF1E0" fill-opacity="0.19"/><circle cx="201.5" cy="667.5" r="0.38" fill="#E6F7FF" fill-opacity="0.20"/><circle cx="335.3" cy="53.2" r="0.73" fill="#E6F7FF" fill-opacity="0.46"/><circle cx="266.3" cy="712.4" r="0.48" fill="#DDE9FF" fill-opacity="0.28"/><circle cx="213.8" cy="457.5" r="0.35" fill="#E6F7FF" fill-opacity="0.18"/><circle cx="312.2" cy="531.9" r="0.79" fill="#DDE9FF" fill-opacity="0.51"/><circle cx="69.3" cy="413.8" r="0.71" fill="#FFFFFF" fill-opacity="0.45"/><circle cx="131" cy="453" r="0.51" fill="#FFFFFF" fill-opacity="0.30"/><circle cx="355.1" cy="49.7" r="0.36" fill="#FFFFFF" fill-opacity="0.18"/><circle cx="310.4" cy="443.7" r="0.52" fill="#FFFFFF" fill-opacity="0.30"/><circle cx="178.2" cy="535.3" r="0.47" fill="#DDE9FF" fill-opacity="0.27"/><circle cx="278.5" cy="395.4" r="0.49" fill="#E6F7FF" fill-opacity="0.29"/><circle cx="204.1" cy="216.5" r="0.49" fill="#FFF1E0" fill-opacity="0.28"/><circle cx="371" cy="780.3" r="0.36" fill="#E6F7FF" fill-opacity="0.19"/><circle cx="55.1" cy="106.3" r="0.43" fill="#FFFFFF" fill-opacity="0.24"/><circle cx="269.8" cy="374.4" r="0.36" fill="#FFF1E0" fill-opacity="0.19"/><circle cx="315.1" cy="784" r="0.35" fill="#FFF1E0" fill-opacity="0.18"/><circle cx="57.5" cy="771.6" r="1.21" fill="#DDE9FF" fill-opacity="0.81"/><path d="M49.9 771.6H65M57.5 764.1V779.1" stroke="#DDE9FF" stroke-opacity="0.28" stroke-width=".5"/><circle cx="300.2" cy="82.3" r="1.01" fill="#DDE9FF" fill-opacity="0.67"/><circle cx="397.9" cy="727.6" r="0.35" fill="#E6F7FF" fill-opacity="0.18"/><circle cx="399.6" cy="352.9" r="0.42" fill="#FFF1E0" fill-opacity="0.23"/><circle cx="128" cy="631.2" r="0.35" fill="#E6F7FF" fill-opacity="0.18"/><circle cx="177.1" cy="15.8" r="0.38" fill="#FFF1E0" fill-opacity="0.21"/><circle cx="205.9" cy="56.2" r="1.26" fill="#DDE9FF" fill-opacity="0.85"/><path d="M198.1 56.2H213.7M205.9 48.4V64" stroke="#DDE9FF" stroke-opacity="0.30" stroke-width=".5"/><circle cx="390.6" cy="91.6" r="0.37" fill="#FFFFFF" fill-opacity="0.19"/><circle cx="364.2" cy="158.7" r="0.76" fill="#E6F7FF" fill-opacity="0.48"/><circle cx="341.5" cy="590.8" r="1.15" fill="#E6F7FF" fill-opacity="0.77"/><path d="M334.3 590.8H348.8M341.5 583.6V598" stroke="#E6F7FF" stroke-opacity="0.27" stroke-width=".5"/><circle cx="60" cy="803.4" r="0.53" fill="#FFF1E0" fill-opacity="0.31"/><circle cx="36" cy="50.3" r="0.66" fill="#E6F7FF" fill-opacity="0.41"/><circle cx="359.9" cy="235" r="0.35" fill="#FFFFFF" fill-opacity="0.18"/><circle cx="322.3" cy="73.2" r="0.95" fill="#FFFFFF" fill-opacity="0.62"/><circle cx="106.3" cy="106.3" r="0.35" fill="#E6F7FF" fill-opacity="0.18"/><circle cx="372.5" cy="234.1" r="0.35" fill="#DDE9FF" fill-opacity="0.18"/><circle cx="377.1" cy="847.1" r="0.37" fill="#DDE9FF" fill-opacity="0.19"/><circle cx="81.1" cy="272.7" r="0.38" fill="#DDE9FF" fill-opacity="0.20"/><circle cx="116.6" cy="437.1" r="0.36" fill="#FFF1E0" fill-opacity="0.18"/><circle cx="323.1" cy="869.2" r="0.35" fill="#FFFFFF" fill-opacity="0.18"/><circle cx="294.7" cy="481.6" r="0.36" fill="#E6F7FF" fill-opacity="0.18"/><circle cx="98.8" cy="390.7" r="0.62" fill="#E6F7FF" fill-opacity="0.38"/><circle cx="263.9" cy="477.1" r="1.02" fill="#FFF1E0" fill-opacity="0.67"/><circle cx="276.5" cy="858.7" r="0.39" fill="#DDE9FF" fill-opacity="0.21"/><circle cx="162.7" cy="303.8" r="0.35" fill="#DDE9FF" fill-opacity="0.18"/><circle cx="5.7" cy="546.6" r="1.00" fill="#E6F7FF" fill-opacity="0.66"/><circle cx="65.6" cy="73.8" r="0.92" fill="#FFF1E0" fill-opacity="0.60"/><circle cx="240.7" cy="605.4" r="0.35" fill="#DDE9FF" fill-opacity="0.18"/><circle cx="63.3" cy="389.7" r="0.37" fill="#FFF1E0" fill-opacity="0.19"/><circle cx="391" cy="478.1" r="0.36" fill="#FFF1E0" fill-opacity="0.19"/><circle cx="87.6" cy="159.9" r="0.39" fill="#FFFFFF" fill-opacity="0.21"/><circle cx="190.8" cy="439.4" r="0.36" fill="#FFFFFF" fill-opacity="0.19"/><circle cx="36.5" cy="714.1" r="0.35" fill="#FFFFFF" fill-opacity="0.18"/><circle cx="158.4" cy="261.9" r="0.59" fill="#FFFFFF" fill-opacity="0.35"/><circle cx="235.4" cy="462.5" r="0.75" fill="#E6F7FF" fill-opacity="0.48"/><circle cx="307.3" cy="629.9" r="0.46" fill="#FFF1E0" fill-opacity="0.26"/><circle cx="291.1" cy="562.2" r="0.35" fill="#E6F7FF" fill-opacity="0.18"/><circle cx="295" cy="709.9" r="0.35" fill="#FFFFFF" fill-opacity="0.18"/><circle cx="332.2" cy="510.5" r="1.03" fill="#DDE9FF" fill-opacity="0.68"/><circle cx="34.2" cy="36.6" r="0.60" fill="#FFFFFF" fill-opacity="0.36"/><circle cx="151.4" cy="394.5" r="0.35" fill="#FFFFFF" fill-opacity="0.18"/><circle cx="251.7" cy="594.9" r="0.46" fill="#FFFFFF" fill-opacity="0.26"/><circle cx="183.7" cy="61.3" r="1.12" fill="#FFFFFF" fill-opacity="0.75"/><path d="M176.6 61.3H190.7M183.7 54.2V68.3" stroke="#FFFFFF" stroke-opacity="0.26" stroke-width=".5"/><circle cx="265" cy="57.7" r="0.73" fill="#FFF1E0" fill-opacity="0.46"/><circle cx="325.3" cy="739.5" r="0.36" fill="#DDE9FF" fill-opacity="0.19"/><circle cx="92.8" cy="568" r="0.44" fill="#E6F7FF" fill-opacity="0.25"/><circle cx="30.8" cy="795.7" r="0.37" fill="#FFFFFF" fill-opacity="0.20"/><circle cx="248" cy="561.8" r="0.35" fill="#DDE9FF" fill-opacity="0.18"/><circle cx="133.4" cy="569.4" r="0.67" fill="#DDE9FF" fill-opacity="0.41"/><circle cx="5" cy="53" r="0.37" fill="#FFFFFF" fill-opacity="0.19"/><circle cx="278.3" cy="590.6" r="0.37" fill="#FFF1E0" fill-opacity="0.20"/><circle cx="186.8" cy="407.6" r="0.35" fill="#DDE9FF" fill-opacity="0.18"/><circle cx="125.3" cy="75" r="0.45" fill="#FFF1E0" fill-opacity="0.25"/><circle cx="184.5" cy="716.6" r="1.21" fill="#E6F7FF" fill-opacity="0.82"/><path d="M177 716.6H192M184.5 709.1V724.1" stroke="#E6F7FF" stroke-opacity="0.29" stroke-width=".5"/><circle cx="399.6" cy="338.1" r="1.08" fill="#DDE9FF" fill-opacity="0.72"/><path d="M392.7 338.1H406.4M399.6 331.3V345" stroke="#DDE9FF" stroke-opacity="0.25" stroke-width=".5"/><circle cx="30" cy="78.9" r="0.75" fill="#FFF1E0" fill-opacity="0.47"/><circle cx="383" cy="115.9" r="0.87" fill="#FFF1E0" fill-opacity="0.57"/><circle cx="356.5" cy="614.7" r="0.36" fill="#E6F7FF" fill-opacity="0.19"/><circle cx="158.4" cy="139" r="1.16" fill="#E6F7FF" fill-opacity="0.78"/><path d="M151.1 139H165.7M158.4 131.7V146.3" stroke="#E6F7FF" stroke-opacity="0.27" stroke-width=".5"/><circle cx="163" cy="635.6" r="0.42" fill="#E6F7FF" fill-opacity="0.23"/><circle cx="127.1" cy="734.4" r="0.35" fill="#FFF1E0" fill-opacity="0.18"/><circle cx="337.3" cy="104.9" r="1.11" fill="#FFFFFF" fill-opacity="0.74"/><path d="M330.3 104.9H344.3M337.3 97.9V111.9" stroke="#FFFFFF" stroke-opacity="0.26" stroke-width=".5"/><circle cx="362.4" cy="253.3" r="0.40" fill="#E6F7FF" fill-opacity="0.22"/><circle cx="156.8" cy="760.4" r="0.35" fill="#E6F7FF" fill-opacity="0.18"/><circle cx="303.8" cy="746.6" r="0.37" fill="#FFFFFF" fill-opacity="0.20"/><circle cx="335.5" cy="249.6" r="1.13" fill="#DDE9FF" fill-opacity="0.75"/><path d="M328.4 249.6H342.6M335.5 242.5V256.7" stroke="#DDE9FF" stroke-opacity="0.26" stroke-width=".5"/><circle cx="390.4" cy="381.3" r="0.38" fill="#FFF1E0" fill-opacity="0.20"/><circle cx="315.6" cy="373.9" r="0.35" fill="#E6F7FF" fill-opacity="0.18"/><circle cx="367.2" cy="822.2" r="0.51" fill="#FFFFFF" fill-opacity="0.30"/><circle cx="19.9" cy="640.1" r="0.44" fill="#DDE9FF" fill-opacity="0.24"/><circle cx="259.1" cy="250.1" r="0.35" fill="#DDE9FF" fill-opacity="0.18"/><circle cx="68.6" cy="362.6" r="0.37" fill="#FFF1E0" fill-opacity="0.20"/></svg>